<svg xmlns="http://www.w3.org/2000/svg" viewBox="0 0 500 500"><g id="freepik--background-complete--inject-68"><path d="M157.27,62.72h33.29a0,0,0,0,1,0,0v53.07a0,0,0,0,1,0,0H153.2a0,0,0,0,1,0,0v-49A4.07,4.07,0,0,1,157.27,62.72Z" style="fill:#e0e0e0"></path><path d="M204.65,69.3l-25.8-.11-75.35-.35-9.08,0-22.58-.11A20.27,20.27,0,0,0,51.45,88.85L50.07,413.59a20.27,20.27,0,0,0,20.21,20.33l132.81.61a20.27,20.27,0,0,0,20.39-20.16l1.38-324.74A20.28,20.28,0,0,0,204.65,69.3Z" style="fill:#f5f5f5"></path><path d="M197.79,116.36c0,.32-28,.57-62.64.57s-62.65-.25-62.65-.57,28-.58,62.65-.58S197.79,116,197.79,116.36Z" style="fill:#e0e0e0"></path><rect x="71.06" y="132.11" width="131.42" height="8.79" style="fill:#e0e0e0"></rect><path d="M197.79,166.73c0,.31-28,.57-62.64.57S72.5,167,72.5,166.73s28-.58,62.65-.58S197.79,166.41,197.79,166.73Z" style="fill:#e0e0e0"></path><path d="M197.79,182.73c0,.32-28,.57-62.64.57s-62.65-.25-62.65-.57,28-.58,62.65-.58S197.79,182.41,197.79,182.73Z" style="fill:#e0e0e0"></path><path d="M197.79,198.73c0,.32-28,.57-62.64.57s-62.65-.25-62.65-.57,28-.57,62.65-.57S197.79,198.41,197.79,198.73Z" style="fill:#e0e0e0"></path><path d="M197.79,214.73c0,.32-28,.58-62.64.58s-62.65-.26-62.65-.58,28-.57,62.65-.57S197.79,214.42,197.79,214.73Z" style="fill:#e0e0e0"></path><path d="M197.79,230.74c0,.31-28,.57-62.64.57s-62.65-.26-62.65-.57,28-.58,62.65-.58S197.79,230.42,197.79,230.74Z" style="fill:#e0e0e0"></path><path d="M199.59,248.88c0,.32-28.06.58-62.65.58s-62.65-.26-62.65-.58,28.05-.57,62.65-.57S199.59,248.56,199.59,248.88Z" style="fill:#e0e0e0"></path><rect x="72.65" y="278.44" width="131.75" height="127.46" style="fill:#ebebeb"></rect><path d="M161.82,316.64a9.48,9.48,0,1,1-9.48-9.48A9.48,9.48,0,0,1,161.82,316.64Z" style="fill:#e0e0e0"></path><path d="M194.22,288.42l-111.31-.09c.12-.14-1.2,1.2-.64.65V303.4q0,7.17,0,14.19,0,14.06,0,27.47c0,17.85,0,34.73.06,50.25v.55h.55l80.84-.28,22.57-.14,5.92-.06,1.5,0a2.83,2.83,0,0,0,.49,0l-27-46.25-18.11,22.26L119.31,329.4,83.45,394.74c0-15.37,0-32.05.06-49.68q0-13.4,0-27.47,0-7,0-14.19V289.59l110.15-.09c.11,31.59.21,57.91.27,76.42.06,9.28.11,16.59.14,21.65,0,2.46,0,4.38.07,5.73,0,.62,0,1.11,0,1.49a3.69,3.69,0,0,0,0,.52,2.36,2.36,0,0,0,0-.46c0-.37,0-.83,0-1.43,0-1.33,0-3.21.06-5.63,0-5,.08-12.3.14-21.53.07-18.7.16-45.33.28-77.3v-.54Z" style="fill:#e0e0e0"></path><path d="M203.12,68.19a5.46,5.46,0,0,0-5.46-5.47H159.73a5.45,5.45,0,0,1,5.46,5.45v53.25l19-10.69,19,9.74S203.06,82.61,203.12,68.19Z" style="fill:#ebebeb"></path><path d="M185.39,82.64l1.32,2.68a.79.79,0,0,0,.57.42l3,.43a.76.76,0,0,1,.42,1.29l-2.14,2.08a.77.77,0,0,0-.22.67l.51,3a.76.76,0,0,1-1.1.8l-2.65-1.39a.73.73,0,0,0-.7,0L181.71,94a.75.75,0,0,1-1.09-.8l.5-3a.77.77,0,0,0-.22-.67l-2.14-2.08a.76.76,0,0,1,.42-1.29l3-.43a.78.78,0,0,0,.57-.42L184,82.64A.76.76,0,0,1,185.39,82.64Z" style="fill:#fff"></path><path d="M374.27,60.06h33.29a0,0,0,0,1,0,0v53.07a0,0,0,0,1,0,0H370.2a0,0,0,0,1,0,0v-49A4.07,4.07,0,0,1,374.27,60.06Z" style="fill:#e0e0e0"></path><path d="M421.65,66.65l-25.8-.12-75.36-.34-9.07,0L288.84,66a20.27,20.27,0,0,0-20.4,20.16l-1.38,324.74a20.28,20.28,0,0,0,20.21,20.33l132.81.61a20.27,20.27,0,0,0,20.4-20.16L441.85,87A20.26,20.26,0,0,0,421.65,66.65Z" style="fill:#f5f5f5"></path><path d="M414.79,113.71c0,.31-28.05.57-62.65.57s-62.65-.26-62.65-.57,28.05-.58,62.65-.58S414.79,113.39,414.79,113.71Z" style="fill:#e0e0e0"></path><rect x="288.06" y="129.46" width="131.42" height="8.79" style="fill:#e0e0e0"></rect><path d="M414.79,164.07c0,.32-28.05.58-62.65.58s-62.65-.26-62.65-.58,28.05-.57,62.65-.57S414.79,163.75,414.79,164.07Z" style="fill:#e0e0e0"></path><path d="M414.79,180.07c0,.32-28.05.58-62.65.58s-62.65-.26-62.65-.58,28.05-.57,62.65-.57S414.79,179.76,414.79,180.07Z" style="fill:#e0e0e0"></path><path d="M414.79,196.08c0,.31-28.05.57-62.65.57s-62.65-.26-62.65-.57,28.05-.58,62.65-.58S414.79,195.76,414.79,196.08Z" style="fill:#e0e0e0"></path><path d="M414.79,212.08c0,.32-28.05.57-62.65.57s-62.65-.25-62.65-.57,28.05-.58,62.65-.58S414.79,211.76,414.79,212.08Z" style="fill:#e0e0e0"></path><path d="M414.79,228.08c0,.32-28.05.58-62.65.58s-62.65-.26-62.65-.58,28.05-.57,62.65-.57S414.79,227.76,414.79,228.08Z" style="fill:#e0e0e0"></path><path d="M416.58,246.23c0,.31-28.05.57-62.64.57s-62.66-.26-62.66-.57,28.05-.58,62.66-.58S416.58,245.91,416.58,246.23Z" style="fill:#e0e0e0"></path><rect x="289.65" y="275.78" width="131.75" height="127.46" style="fill:#ebebeb"></rect><path d="M378.81,314a9.48,9.48,0,1,1-9.48-9.48A9.48,9.48,0,0,1,378.81,314Z" style="fill:#e0e0e0"></path><path d="M411.21,285.77l-111.31-.09-.64.64v28.62c0,9.36,0,18.54,0,27.46,0,17.86,0,34.73.06,50.26v.55h.54l80.84-.28,22.58-.15,5.91-.06,1.5,0a2.69,2.69,0,0,0,.49,0l-27-46.26-18.11,22.27L336.3,326.74l-35.86,65.34c0-15.36,0-32,.06-49.68,0-8.92,0-18.1,0-27.46v-28l110.15-.09c.12,31.59.21,57.92.28,76.43.06,9.28.11,16.59.14,21.64,0,2.47.05,4.38.06,5.74,0,.62,0,1.11,0,1.49a3.87,3.87,0,0,0,0,.52,2.49,2.49,0,0,0,0-.46c0-.37,0-.84,0-1.43,0-1.33,0-3.21.06-5.63,0-5,.09-12.3.14-21.53.07-18.7.17-45.33.28-77.3v-.54Z" style="fill:#e0e0e0"></path><path d="M420.11,65.54a5.46,5.46,0,0,0-5.45-5.48H376.73a5.46,5.46,0,0,1,5.45,5.46v53.24l19-10.68,19,9.73S420.06,80,420.11,65.54Z" style="fill:#ebebeb"></path><path d="M402.38,80l1.33,2.68a.74.74,0,0,0,.57.41l3,.43a.76.76,0,0,1,.42,1.29l-2.14,2.09a.75.75,0,0,0-.22.67l.5,3a.75.75,0,0,1-1.1.79l-2.64-1.39a.81.81,0,0,0-.71,0l-2.64,1.39a.75.75,0,0,1-1.1-.79l.5-3a.72.72,0,0,0-.21-.67l-2.14-2.09a.75.75,0,0,1,.42-1.29l2.95-.43a.74.74,0,0,0,.57-.41L401,80A.75.75,0,0,1,402.38,80Z" style="fill:#fff"></path></g><g id="freepik--speech-bubble--inject-68"><path d="M379.87,196.94l8.35-14.72a39.47,39.47,0,1,1,9.45,10.51v0Z" style="fill:#fff"></path><path d="M379.87,196.94l17.78-4.32-.07.21v0a.12.12,0,0,1,0-.18.12.12,0,0,1,.16,0,40.49,40.49,0,0,0,8.07,4.8,39.16,39.16,0,0,0,10.72,3,35,35,0,0,0,6.18.29c1.07-.06,2.15-.09,3.24-.19l3.29-.5a39.35,39.35,0,0,0,24.31-15.68,38.86,38.86,0,0,0,6.56-15.05,39.73,39.73,0,0,0-.47-17.3,38.4,38.4,0,0,0-8.34-16l-1.59-1.75c-.52-.59-1.14-1.07-1.71-1.61a23.36,23.36,0,0,0-1.76-1.54l-1.87-1.4a16.47,16.47,0,0,0-1.93-1.27l-2-1.2-2.07-1a16.66,16.66,0,0,0-2.08-.92,39.71,39.71,0,0,0-17.44-2.7,38.5,38.5,0,0,0-16,4.71,39.64,39.64,0,0,0-18.55,22.72,42.6,42.6,0,0,0-1.74,12.69,39.22,39.22,0,0,0,5.74,19.42.11.11,0,0,1,0,.12l-8.46,14.66,8.25-14.78v.13a39.19,39.19,0,0,1-5.89-19.54,42.76,42.76,0,0,1,1.71-12.82,40,40,0,0,1,18.7-23,38.89,38.89,0,0,1,16.22-4.8,40.13,40.13,0,0,1,17.66,2.72,16.55,16.55,0,0,1,2.11.94l2.1,1,2,1.22a16.87,16.87,0,0,1,1.95,1.29l1.89,1.42c.65.45,1.19,1,1.79,1.55s1.2,1,1.73,1.64l1.61,1.77a38.81,38.81,0,0,1,8.45,16.2,40.15,40.15,0,0,1,.46,17.53A39,39,0,0,1,454,184.63a39.66,39.66,0,0,1-24.62,15.81l-3.33.5c-1.1.09-2.19.12-3.27.18a34.66,34.66,0,0,1-6.24-.32,39.65,39.65,0,0,1-10.8-3.08,40.6,40.6,0,0,1-8.1-4.89l.18-.18,0,0a.13.13,0,0,1,0,.18l-.05,0Z" style="fill:#263238"></path><path d="M414,143H409.8a3.63,3.63,0,0,0-3.63,3.64c0,9.58,0,23.18,0,23.18l25.26-.37V146.6A3.63,3.63,0,0,1,435,143Z" style="fill:#39FF14"></path><g style="opacity:0.30000000000000004"><path d="M414,143H409.8a3.63,3.63,0,0,0-3.63,3.64c0,9.58,0,23.18,0,23.18l25.26-.37V146.6A3.63,3.63,0,0,1,435,143Z"></path></g><path d="M438,146.6a3.61,3.61,0,0,0-3.62-3.63H409.12a3.62,3.62,0,0,1,3.63,3.63v33.65a1,1,0,0,0,1.53.89l11.11-6.24,11.13,5.7a1,1,0,0,0,1.49-.91C438,173.9,437.94,154.68,438,146.6Z" style="fill:#39FF14"></path><path d="M425.37,155.93l.92,1.87a.54.54,0,0,0,.4.29l2.07.3a.53.53,0,0,1,.29.9l-1.49,1.46a.52.52,0,0,0-.16.47l.36,2.06a.53.53,0,0,1-.77.56l-1.85-1a.53.53,0,0,0-.49,0l-1.85,1a.53.53,0,0,1-.77-.56l.35-2.06a.52.52,0,0,0-.15-.47l-1.5-1.46a.53.53,0,0,1,.3-.9l2.07-.3a.51.51,0,0,0,.39-.29l.93-1.87A.53.53,0,0,1,425.37,155.93Z" style="fill:#fff"></path></g><g id="freepik--Screen--inject-68"><path d="M207,29.4h33.29a0,0,0,0,1,0,0V82.47a0,0,0,0,1,0,0H203a0,0,0,0,1,0,0v-49A4.07,4.07,0,0,1,207,29.4Z" style="fill:#39FF14"></path><g style="opacity:0.30000000000000004"><path d="M207,29.4h33.33a0,0,0,0,1,0,0V82.47a0,0,0,0,1,0,0H203a0,0,0,0,1,0,0v-49A4,4,0,0,1,207,29.4Z"></path></g><path d="M254.43,36l-25.8-.12-75.36-.35-9.07,0-22.58-.1a20.27,20.27,0,0,0-20.4,20.16L99.84,380.27a20.28,20.28,0,0,0,20.21,20.33l132.82.62a20.28,20.28,0,0,0,20.39-20.16l1.38-324.74A20.28,20.28,0,0,0,254.43,36Z" style="fill:#fafafa"></path><path d="M254.43,36l.68,0,.84,0a7.62,7.62,0,0,1,1.16.12l1.48.23,1.77.46c.62.2,1.29.46,2,.73s1.45.64,2.19,1.11a20.29,20.29,0,0,1,4.56,3.59A19.41,19.41,0,0,1,273,48.13a20.31,20.31,0,0,1,1.71,8c0,2.92,0,6,0,9.33-.09,26.38-.23,64.55-.39,111.71s-.41,103.32-.65,165.67q0,11.69-.09,23.67,0,6-.05,12c0,1,0,2,0,3l-.09,1.54-.23,1.52a19.79,19.79,0,0,1-2,5.82,21.27,21.27,0,0,1-3.65,5,22.15,22.15,0,0,1-5,3.68,20.86,20.86,0,0,1-5.91,2l-1.56.23-1.57.08c-1,.05-2.09,0-3.13,0l-25.21-.12-105-.48a20.68,20.68,0,0,1-12.64-4.4,20.42,20.42,0,0,1-7.23-11.15,24.2,24.2,0,0,1-.62-6.66l0-6.64q0-6.61.06-13.19.1-26.28.22-51.76c.15-33.93.29-66.66.43-97.85s.27-60.81.4-88.54q.09-20.79.18-40.13,0-9.65.09-18.91c0-1.54,0-3.07,0-4.6,0-.76,0-1.52,0-2.29l.07-1.14c0-.38.11-.76.16-1.13A20.32,20.32,0,0,1,119,35.37a32.82,32.82,0,0,1,4.19-.16l4.13,0,8.08,0,30,.16,48.05.27,30.37.19,7.9.06,2.69,0H243.84l-30.37-.09-48.05-.18-30-.12-8.08,0h-4.12a30.26,30.26,0,0,0-4.15.16,20,20,0,0,0-17.39,16.8c0,.37-.13.74-.16,1.11l-.06,1.13c0,.74,0,1.51,0,2.27,0,1.53,0,3.06,0,4.6q0,9.25-.07,18.92-.07,19.31-.16,40.12c-.11,27.73-.23,57.36-.35,88.55s-.26,63.91-.4,97.85q-.1,25.44-.22,51.76,0,6.57,0,13.19,0,3.3,0,6.63a23.4,23.4,0,0,0,.61,6.53,19.83,19.83,0,0,0,7,10.87,20.16,20.16,0,0,0,12.32,4.29l105,.49,25.21.12c1,0,2.09,0,3.11,0l1.54-.08,1.52-.22a20.61,20.61,0,0,0,5.77-2,21.63,21.63,0,0,0,4.89-3.59,21,21,0,0,0,3.57-4.87,19.22,19.22,0,0,0,1.95-5.68l.23-1.48.08-1.5c.06-1,0-2,0-3l.06-12.05q0-12,.1-23.66c.29-62.36.54-118.51.76-165.67s.42-85.33.56-111.71c0-3.29,0-6.41,0-9.33a20.26,20.26,0,0,0-1.67-7.93A19.59,19.59,0,0,0,269,42.38a20.24,20.24,0,0,0-4.53-3.59c-.73-.47-1.49-.76-2.17-1.12s-1.37-.53-2-.74l-1.75-.46-1.47-.25a7.89,7.89,0,0,0-1.16-.13l-.84-.05Z" style="fill:#263238"></path><rect x="120.84" y="256.95" width="131.42" height="8.79" style="fill:#39FF14"></rect><path d="M247.57,291.56c0,.32-28,.58-62.65.58s-62.65-.26-62.65-.58,28.05-.57,62.65-.57S247.57,291.24,247.57,291.56Z" style="fill:#263238"></path><path d="M247.57,83c0,.32-28,.58-62.65.58s-62.65-.26-62.65-.58,28.05-.57,62.65-.57S247.57,82.72,247.57,83Z" style="fill:#263238"></path><path d="M247.57,307.56c0,.32-28,.58-62.65.58s-62.65-.26-62.65-.58,28.05-.57,62.65-.57S247.57,307.25,247.57,307.56Z" style="fill:#263238"></path><path d="M247.57,323.57c0,.31-28,.57-62.65.57s-62.65-.26-62.65-.57,28.05-.58,62.65-.58S247.57,323.25,247.57,323.57Z" style="fill:#263238"></path><path d="M247.57,339.57c0,.32-28,.57-62.65.57s-62.65-.25-62.65-.57,28.05-.58,62.65-.58S247.57,339.25,247.57,339.57Z" style="fill:#263238"></path><path d="M247.57,355.57c0,.32-28,.58-62.65.58s-62.65-.26-62.65-.58,28.05-.57,62.65-.57S247.57,355.25,247.57,355.57Z" style="fill:#263238"></path><path d="M249.36,373.72c0,.31-28.05.57-62.64.57s-62.65-.26-62.65-.57,28-.58,62.65-.58S249.36,373.4,249.36,373.72Z" style="fill:#263238"></path><rect x="122.27" y="101.29" width="131.75" height="127.46" style="fill:#455a64"></rect><g style="opacity:0.30000000000000004"><path d="M211.44,139.49A9.48,9.48,0,1,1,202,130,9.48,9.48,0,0,1,211.44,139.49Z"></path></g><g style="opacity:0.30000000000000004"><path d="M243.84,111.27l-111.31-.09c.13-.14-1.2,1.2-.64.65v14.42q0,7.17,0,14.2c0,9.36,0,18.53,0,27.46,0,17.85.05,34.73.06,50.26v.55h.55l80.84-.27,22.58-.15,5.91-.06,1.5,0a2.69,2.69,0,0,0,.49,0l-27-46.26-18.12,22.27-29.81-41.93-35.86,65.34c0-15.37,0-32,.06-49.68,0-8.93,0-18.1,0-27.46q0-7,0-14.2V112.44l110.15-.09c.12,31.59.21,57.91.28,76.43.06,9.28.1,16.59.14,21.64,0,2.47,0,4.38.06,5.74,0,.62,0,1.1,0,1.48a4,4,0,0,0,0,.53,2.56,2.56,0,0,0,0-.47c0-.36,0-.83,0-1.42,0-1.34,0-3.21.06-5.64,0-5,.08-12.29.14-21.52.07-18.7.16-45.33.28-77.31v-.54Z"></path></g><path d="M252.89,34.88a5.46,5.46,0,0,0-5.45-5.48H209.51A5.45,5.45,0,0,1,215,34.86V88.1l19-10.68,19,9.73S252.84,49.29,252.89,34.88Z" style="fill:#39FF14"></path><path d="M235.17,49.32,236.49,52a.75.75,0,0,0,.57.42l3,.43a.76.76,0,0,1,.42,1.29l-2.14,2.09a.75.75,0,0,0-.22.67l.5,2.94a.75.75,0,0,1-1.09.8l-2.65-1.39a.75.75,0,0,0-.71,0l-2.64,1.39a.76.76,0,0,1-1.1-.8l.51-2.94a.75.75,0,0,0-.22-.67l-2.14-2.09a.76.76,0,0,1,.42-1.29l3-.43a.77.77,0,0,0,.57-.42l1.32-2.68A.76.76,0,0,1,235.17,49.32Z" style="fill:#fff"></path></g><g id="freepik--Device--inject-68"><path d="M323.81,479.11,193.26,479a28.44,28.44,0,0,1-28.42-28.44l.07-327.3a28.43,28.43,0,0,1,28.45-28.43l130.55.08a28.43,28.43,0,0,1,28.42,28.44l-.06,327.3A28.44,28.44,0,0,1,323.81,479.11Z" style="fill:#263238"></path><path d="M323.77,106.51H298.46a6.28,6.28,0,0,0-6.14,6.42v4.59a6.28,6.28,0,0,1-6.14,6.42l-49.34,0a6.31,6.31,0,0,1-6.15-6.43v-4.59a6.28,6.28,0,0,0-6.14-6.43H193.48a19.91,19.91,0,0,0-19.92,19.91l-.07,319.46a19.91,19.91,0,0,0,19.91,19.92l130.29.08a19.92,19.92,0,0,0,19.93-19.91l.06-319.47A19.93,19.93,0,0,0,323.77,106.51Z" style="fill:#fafafa"></path><path d="M249,439a2.51,2.51,0,1,1-2.52-2.48A2.5,2.5,0,0,1,249,439Z" style="fill:#263238"></path><path d="M263,438.89a2.5,2.5,0,1,1-2.52-2.48A2.52,2.52,0,0,1,263,438.89Z" style="fill:#263238"></path><circle cx="274.51" cy="438.8" r="2.5" transform="translate(-231.23 328.69) rotate(-45.69)" style="fill:#263238"></circle><rect x="197.74" y="318.91" width="121.05" height="7.91" style="fill:#39FF14"></rect><path d="M317.06,344.92c0,.28-27.18.52-60.69.52s-60.7-.24-60.7-.52,27.17-.52,60.7-.52S317.06,344.63,317.06,344.92Z" style="fill:#263238"></path><path d="M317.06,359.32c0,.28-27.18.51-60.69.51s-60.7-.23-60.7-.51,27.17-.52,60.7-.52S317.06,359,317.06,359.32Z" style="fill:#263238"></path><path d="M317.06,373.71c0,.29-27.18.52-60.69.52s-60.7-.23-60.7-.52,27.17-.51,60.7-.51S317.06,373.43,317.06,373.71Z" style="fill:#263238"></path><path d="M317.06,388.11c0,.28-27.18.52-60.69.52s-60.7-.24-60.7-.52,27.17-.52,60.7-.52S317.06,387.82,317.06,388.11Z" style="fill:#263238"></path><path d="M317.06,402.5c0,.29-27.18.52-60.69.52s-60.7-.23-60.7-.52,27.17-.51,60.7-.51S317.06,402.22,317.06,402.5Z" style="fill:#263238"></path><path d="M318.79,418.83c0,.28-27.17.51-60.68.51s-60.7-.23-60.7-.51,27.17-.52,60.7-.52S318.79,418.54,318.79,418.83Z" style="fill:#263238"></path><rect x="196.52" y="181.39" width="55.26" height="53.46" style="fill:#455a64"></rect><g style="opacity:0.30000000000000004"><path d="M233.92,197.42a4,4,0,1,1-4-4A4,4,0,0,1,233.92,197.42Z"></path></g><g style="opacity:0.30000000000000004"><path d="M247.51,185.58l-46.69,0-.27.28h0v6c0,2,0,4,0,6v11.52c0,7.49,0,14.57,0,21.08v.23h.23l33.9-.12,9.47-.06,2.49,0h.83L236.19,211l-7.6,9.33-12.5-17.58-15,27.41c0-6.45,0-13.44,0-20.84,0-3.75,0-7.59,0-11.52V186.07l46.2,0c.05,13.25.09,24.3.12,32.06,0,3.89,0,7,.06,9.08,0,1,0,1.84,0,2.41,0,.26,0,.46,0,.62s0,.21,0,.22a1.39,1.39,0,0,0,0-.2c0-.15,0-.35,0-.59q0-.84,0-2.37c0-2.11,0-5.15.06-9,0-7.84.07-19,.12-32.42v-.23Z"></path></g><rect x="265.06" y="181.39" width="55.26" height="53.46" style="fill:#455a64"></rect><g style="opacity:0.30000000000000004"><path d="M302.46,197.42a4,4,0,1,1-4-4A4,4,0,0,1,302.46,197.42Z"></path></g><g style="opacity:0.30000000000000004"><path d="M316.05,185.58l-46.69,0c.06,0-.5.51-.26.28h0v23.51c0,7.49,0,14.57,0,21.08v.23h.23l33.91-.12,9.47-.06,2.48,0h.83L304.73,211l-7.59,9.33-12.51-17.58-15,27.41c0-6.45,0-13.44,0-20.84q0-5.62,0-11.52V186.07l46.21,0c0,13.25.08,24.3.11,32.06,0,3.89.05,7,.06,9.08,0,1,0,1.84,0,2.41,0,.26,0,.46,0,.62s0,.21,0,.22,0-.06,0-.2,0-.35,0-.59c0-.56,0-1.35,0-2.37,0-2.11,0-5.15.06-9,0-7.84.07-19,.12-32.42v-.23Z"></path></g><rect x="196.52" y="244.77" width="55.26" height="53.46" style="fill:#455a64"></rect><g style="opacity:0.30000000000000004"><path d="M233.92,260.8a4,4,0,1,1-4-4A4,4,0,0,1,233.92,260.8Z"></path></g><g style="opacity:0.30000000000000004"><path d="M247.51,249l-46.69,0-.27.27h0v6c0,2,0,4,0,6v11.52c0,7.48,0,14.56,0,21.08V294h.23l33.9-.11,9.47-.06,2.49,0h.83l-11.32-19.41-7.6,9.34-12.5-17.58-15,27.4c0-6.44,0-13.44,0-20.83,0-3.75,0-7.6,0-11.52V249.45l46.2,0c.05,13.25.09,24.29.12,32.06,0,3.89,0,7,.06,9.08,0,1,0,1.83,0,2.4,0,.26,0,.47,0,.63s0,.21,0,.22a1.57,1.57,0,0,0,0-.2c0-.15,0-.35,0-.6,0-.56,0-1.34,0-2.36,0-2.11,0-5.16.06-9,0-7.84.07-19,.12-32.42V249Z"></path></g><rect x="265.03" y="244.77" width="55.26" height="53.46" style="fill:#455a64"></rect><g style="opacity:0.30000000000000004"><path d="M302.43,260.8a4,4,0,1,1-4-4A4,4,0,0,1,302.43,260.8Z"></path></g><g style="opacity:0.30000000000000004"><path d="M316,249l-46.69,0-.27.27h0v12c0,3.92,0,7.77,0,11.52,0,7.48,0,14.56,0,21.08V294h.23l33.9-.11,9.47-.06,2.48,0H316L304.7,274.39l-7.6,9.34-12.5-17.58-15,27.4c0-6.44,0-13.44,0-20.83,0-3.75,0-7.6,0-11.52V249.45l46.2,0c0,13.25.09,24.29.12,32.06,0,3.89,0,7,.06,9.08,0,1,0,1.83,0,2.4,0,.26,0,.47,0,.63a.82.82,0,0,0,0,.22,1.57,1.57,0,0,0,0-.2c0-.15,0-.35,0-.6,0-.56,0-1.34,0-2.36,0-2.11,0-5.16.06-9,0-7.84.07-19,.11-32.42V249Z"></path></g><path d="M320.93,149.12a4,4,0,1,1,3.86-4,4.09,4.09,0,0,1-.63,2.21l.62,1.47a.2.2,0,0,1,0,.21.18.18,0,0,1-.2,0l-1.38-.64A3.71,3.71,0,0,1,320.93,149.12Zm0-7.69a3.66,3.66,0,0,0,0,7.32A3.37,3.37,0,0,0,323,148a.17.17,0,0,1,.18,0l1.06.49-.47-1.14a.19.19,0,0,1,0-.18,3.72,3.72,0,0,0,.63-2.08A3.59,3.59,0,0,0,320.93,141.43Z" style="fill:#263238"></path><path d="M334.79,149.26a.13.13,0,0,1-.1,0l-2.82-2-2.81,2a.19.19,0,0,1-.19,0,.2.2,0,0,1-.09-.16v-7.47a.18.18,0,0,1,.18-.18h5.83a.18.18,0,0,1,.18.18v7.47a.19.19,0,0,1-.1.16Zm-2.92-2.44a.2.2,0,0,1,.11,0l2.63,1.88v-6.94h-5.48v6.94l2.64-1.88A.19.19,0,0,1,331.87,146.82Z" style="fill:#39FF14"></path><path d="M182.15,149.76l.24,0,.69,0,2.52-.07-.09.09q0-.84,0-1.83c0-.34,0-.65,0-1.06a1,1,0,0,1,.87-.79c.41,0,.76,0,1.21,0a1,1,0,0,1,.85,1q0,1.28,0,2.67l-.14-.15,3.18,0-.15.15c0-1.28,0-2.6,0-4,0-.34,0-.68,0-1a1,1,0,0,0-.44-.73l-1.39-1.38-1.34-1.32-.65-.64c-.23-.22-.39-.44-.64-.49a.85.85,0,0,0-.71.14c-.19.15-.4.39-.59.57L184.38,142c-.72.74-1.48,1.43-2,2.06a2.15,2.15,0,0,0-.16,1.18v1.12c0,.67,0,1.28,0,1.8s0,.83,0,1.16,0,.41,0,.42a1.65,1.65,0,0,1,0-.38c0-.32,0-.69,0-1.13s0-1.14-.05-1.83c0-.36,0-.74,0-1.14a2.36,2.36,0,0,1,.17-1.31c.59-.73,1.29-1.36,2-2.14l1.13-1.16c.21-.2.37-.4.62-.61a1.14,1.14,0,0,1,.95-.19,1.75,1.75,0,0,1,.78.56l.65.64,1.35,1.32c.46.44.92.9,1.39,1.36a1.29,1.29,0,0,1,.53.95c0,.33,0,.67,0,1,0,1.36,0,2.69,0,4v.15h-3.48v-.15c0-.92,0-1.82,0-2.67a.76.76,0,0,0-.62-.75c-.36,0-.8,0-1.15,0a.77.77,0,0,0-.67.6c0,.31,0,.69,0,1v1.92h-.09l-2.57,0h-.67C182.21,149.77,182.14,149.77,182.15,149.76Z" style="fill:#263238"></path><rect x="197.63" y="138.21" width="116.21" height="13.34" rx="5.12" style="fill:#e0e0e0"></rect><path d="M211.42,144.68V147h-1.17v-2.13c0-.66-.3-1-.82-1s-1,.35-1,1.09v2h-1.17v-5.57h1.17v2a1.79,1.79,0,0,1,1.28-.48A1.59,1.59,0,0,1,211.42,144.68Z" style="fill:#263238"></path><path d="M215.08,146.79a1.61,1.61,0,0,1-1,.26,1.33,1.33,0,0,1-1.51-1.45v-1.66H212V143h.62v-1h1.17v1h1v.9h-1v1.65a.47.47,0,0,0,.5.53.78.78,0,0,0,.48-.15Z" style="fill:#263238"></path><path d="M218.26,146.79a1.62,1.62,0,0,1-1,.26,1.33,1.33,0,0,1-1.5-1.45v-1.66h-.63V143h.63v-1H217v1h1v.9h-1v1.65a.47.47,0,0,0,.5.53.75.75,0,0,0,.47-.15Z" style="fill:#263238"></path><path d="M223.32,145a2,2,0,0,1-2,2.08,1.57,1.57,0,0,1-1.22-.49v1.89h-1.17V143H220v.47a1.55,1.55,0,0,1,1.27-.53A2,2,0,0,1,223.32,145Zm-1.19,0a1,1,0,1,0-1,1.12A1,1,0,0,0,222.13,145Z" style="fill:#263238"></path><path d="M223.81,143.62a.73.73,0,0,1,1.46,0,.73.73,0,1,1-1.46,0Zm0,2.69a.73.73,0,0,1,1.46,0,.73.73,0,1,1-1.46,0Z" style="fill:#263238"></path><path d="M228.15,140.67h1l-2.48,7.07h-1Z" style="fill:#263238"></path><path d="M230.55,140.67h1l-2.47,7.07h-1.05Z" style="fill:#263238"></path></g></svg>